# xmcd
#
# Track frame offsets: 
#        150
#        24761
#        44673
#        54679
#        76036
#        85184
#        98040
#        110987
#        133681
#        147134
#        167663
#        181884
#        197568
#        208780
#        220453
#        236307
#
# Disc length: 3396 seconds
#
# Revision: 0
# Processed by: cddbd v1.5PL3 Copyright (c) Steve Scherf et al.
# Submitted via: ExactAudioCopy v0.95a5
#
DISCID=db0d4210
DTITLE=Grigory Gladkov - Best Songs
DYEAR=2001
DGENRE=Chanson
TTITLE0=A mozhet byt vorona
TTITLE1=Duhovoj orkestr
TTITLE2=Poj Vasja
TTITLE3=Vozduhoplavatelnyj park
TTITLE4=Pesenka o kartinkah
TTITLE5=Mama
TTITLE6=Avtoportret
TTITLE7=Spjashaya princessa
TTITLE8=V korobke s karandashami
TTITLE9=Dusha
TTITLE10=Pesnja eskimosskogo barda
TTITLE11=Derevenka
TTITLE12=Esli hozyain s toboj
TTITLE13=Dva golosa
TTITLE14=Moskovskie bani
TTITLE15=Staryi dvor
EXTD=Songs for childrens and so...
EXTT0=
EXTT1=
EXTT2=
EXTT3=
EXTT4=
EXTT5=
EXTT6=
EXTT7=
EXTT8=
EXTT9=
EXTT10=
EXTT11=
EXTT12=
EXTT13=
EXTT14=
EXTT15=
PLAYORDER=
